<?xml version="1.0" encoding="utf-8"?>
<svg viewBox="376.123 301.751 38.486 38.486" width="38.486" height="38.486" xmlns="http://www.w3.org/2000/svg">
  <g>
    <title>Layer 1</title>
    <g id="svg_1068">
      <g id="svg_1069">
        <defs>
          <path d="m422.908,422.621c-38.173,-0.877 -51.297,-39.654 -18.886,-55.8c-32.411,16.146 -69.51,-11.012 -53.387,-39.082c-16.123,28.07 -65.419,21.151 -70.938,-9.956c5.519,31.107 -40.323,46.625 -65.967,22.331c25.644,24.294 -2.189,57.323 -40.052,47.529c37.863,9.794 36.876,49.846 -1.421,57.636c38.297,-7.79 64.469,26.57 37.662,49.444c26.807,-22.875 71.828,-5.116 64.787,25.554c7.041,-30.671 56.618,-35.153 71.343,-6.449c-14.725,-28.704 23.667,-54.002 55.247,-36.405c-31.58,-17.596 -16.561,-55.679 21.612,-54.802z" id="SVGID_1_"/>
          <linearGradient y2="-0.13015" x2="1.13015" y1="1.09272" x1="-0.09271" id="SVGID_32_">
            <stop stop-color="#F4E600" offset="0.1956"/>
            <stop stop-color="#E52521" offset="1"/>
          </linearGradient>
          <linearGradient y2="0.49999" x2="1.00001" y1="0.49999" x1="0.00003" id="SVGID_33_">
            <stop stop-color="#132837" offset="0"/>
            <stop stop-color="#132C3D" offset="0.1087"/>
            <stop stop-color="#103A5A" offset="0.7119"/>
            <stop stop-color="#0B3F65" offset="1"/>
          </linearGradient>
          <linearGradient y2="-0.13016" x2="1.13016" y1="1.09272" x1="-0.09271" id="SVGID_31_">
            <stop stop-color="#0E3552" offset="0.1956"/>
            <stop stop-color="#E52521" offset="1"/>
          </linearGradient>
        </defs>
      </g>
    </g>
    <circle id="svg_1248" r="19.243" cy="320.994" cx="395.366" fill="url(#SVGID_31_)"/>
    <circle id="svg_1249" r="12.243" cy="320.994" cx="395.366" fill="url(#SVGID_32_)"/>
    <polygon id="svg_1250" points="399.949,313.356   395.366,317.939 390.783,313.356 387.727,316.411 392.31,320.994 387.727,325.577 390.783,328.633 395.366,324.05 399.949,328.633   403.004,325.577 398.421,320.994 403.004,316.411 " stroke-miterlimit="10" stroke-width="0.5" stroke="#FFD032" fill="url(#SVGID_33_)"/>
  </g>
</svg>